<svg width="616" height="613" viewBox="0 0 616 613" fill="none" xmlns="http://www.w3.org/2000/svg">
<g clip-path="url(#clip0_16_9)">
<path d="M405.958 162.274H304.942C302.73 162.281 300.546 161.783 298.556 160.818C296.566 159.854 294.822 158.448 293.457 156.708C292.067 154.952 291.097 152.902 290.619 150.713C290.141 148.525 290.169 146.257 290.7 144.081C300.01 105.085 300.01 64.4447 290.699 25.4486C290.169 23.2728 290.141 21.0047 290.619 18.8166C291.097 16.6286 292.067 14.5784 293.457 12.822C294.822 11.082 296.566 9.67619 298.556 8.71171C300.546 7.74723 302.73 7.24944 304.942 7.25625H405.958C409.446 7.26627 412.817 8.51398 415.471 10.7772C418.125 13.0403 419.889 16.172 420.449 19.6144C427.098 62.7938 427.098 106.736 420.449 149.916C419.889 153.358 418.125 156.49 415.471 158.753C412.817 161.016 409.446 162.264 405.958 162.274Z" fill="#DEE9F1"/>
<path d="M304.942 14.8571C303.88 14.8535 302.831 15.0922 301.875 15.5551C300.919 16.0179 300.081 16.6927 299.425 17.528C298.75 18.3839 298.279 19.3825 298.047 20.448C297.816 21.5134 297.831 22.6176 298.091 23.6765C307.679 63.8378 307.68 105.692 298.091 145.854C297.831 146.912 297.816 148.016 298.048 149.082C298.279 150.147 298.75 151.145 299.425 152.001C300.081 152.837 300.919 153.512 301.875 153.975C302.831 154.438 303.88 154.677 304.942 154.673H405.959C407.633 154.674 409.254 154.08 410.532 152.997C411.81 151.914 412.662 150.413 412.937 148.761C419.467 106.347 419.467 63.1833 412.937 20.7692C412.662 19.117 411.81 17.6158 410.532 16.5331C409.254 15.4504 407.633 14.8565 405.959 14.8571L304.942 14.8571Z" fill="white"/>
<path d="M383.914 51.4053H330.905C328.89 51.4031 326.958 50.6016 325.533 49.1767C324.108 47.7518 323.307 45.8199 323.304 43.8048V40.8346C323.307 38.8195 324.108 36.8875 325.533 35.4626C326.958 34.0377 328.89 33.2362 330.905 33.234H383.914C385.93 33.2362 387.861 34.0377 389.286 35.4626C390.711 36.8875 391.513 38.8195 391.515 40.8346V43.8048C391.513 45.8199 390.711 47.7519 389.286 49.1768C387.861 50.6016 385.93 51.4031 383.914 51.4053Z" fill="#DEE9F1"/>
<path d="M383.914 88.9354H330.905C328.89 88.9332 326.958 88.1317 325.533 86.7068C324.108 85.2819 323.307 83.35 323.304 81.3349V78.3647C323.307 76.3496 324.108 74.4176 325.533 72.9927C326.958 71.5678 328.89 70.7663 330.905 70.7641H383.914C385.93 70.7663 387.861 71.5678 389.286 72.9927C390.711 74.4176 391.513 76.3496 391.515 78.3647V81.3349C391.513 83.35 390.711 85.2819 389.286 86.7068C387.861 88.1317 385.93 88.9332 383.914 88.9354Z" fill="#DEE9F1"/>
<path d="M383.914 126.465H330.905C328.89 126.463 326.958 125.662 325.533 124.237C324.108 122.812 323.307 120.88 323.304 118.865V115.895C323.307 113.88 324.108 111.948 325.533 110.523C326.958 109.098 328.89 108.296 330.905 108.294H383.914C385.93 108.296 387.861 109.098 389.286 110.523C390.711 111.948 391.513 113.88 391.515 115.895V118.865C391.513 120.88 390.711 122.812 389.286 124.237C387.861 125.662 385.93 126.463 383.914 126.465Z" fill="#DEE9F1"/>
<path d="M595.979 258.551H494.963C492.751 258.558 490.567 258.06 488.577 257.096C486.587 256.131 484.843 254.725 483.478 252.985C482.088 251.229 481.118 249.179 480.64 246.991C480.162 244.802 480.19 242.534 480.721 240.358C490.031 201.362 490.031 160.722 480.72 121.726C480.19 119.55 480.162 117.282 480.64 115.094C481.118 112.906 482.088 110.856 483.478 109.099C484.843 107.359 486.587 105.953 488.577 104.989C490.567 104.024 492.751 103.527 494.963 103.533H595.979C599.467 103.543 602.838 104.791 605.492 107.054C608.146 109.317 609.91 112.449 610.47 115.892C617.119 159.071 617.119 203.014 610.47 246.193C609.91 249.635 608.146 252.767 605.492 255.03C602.838 257.293 599.467 258.541 595.979 258.551Z" fill="#DEE9F1"/>
<path d="M494.962 111.134C493.9 111.131 492.851 111.369 491.895 111.832C490.94 112.295 490.102 112.97 489.446 113.805C488.771 114.661 488.299 115.66 488.068 116.725C487.837 117.791 487.851 118.895 488.111 119.954C497.7 160.115 497.7 201.97 488.112 242.131C487.852 243.19 487.837 244.294 488.068 245.359C488.299 246.424 488.77 247.423 489.446 248.278C490.101 249.114 490.94 249.789 491.895 250.252C492.851 250.715 493.9 250.954 494.962 250.95H595.979C597.654 250.951 599.275 250.357 600.553 249.274C601.831 248.192 602.683 246.69 602.958 245.038C609.488 202.624 609.488 159.46 602.958 117.046C602.683 115.394 601.831 113.893 600.553 112.81C599.275 111.728 597.654 111.134 595.979 111.134L494.962 111.134Z" fill="white"/>
<path d="M394.557 368.13H293.54C291.233 368.137 288.954 367.617 286.878 366.611C284.802 365.605 282.982 364.138 281.558 362.323C280.109 360.491 279.097 358.353 278.598 356.072C278.1 353.79 278.129 351.425 278.683 349.156C287.969 310.257 287.969 269.718 278.682 230.819C278.129 228.55 278.1 226.185 278.598 223.903C279.097 221.622 280.109 219.484 281.558 217.652C282.982 215.837 284.802 214.37 286.878 213.364C288.954 212.358 291.233 211.838 293.54 211.845H394.557C398.196 211.856 401.712 213.158 404.481 215.52C407.249 217.881 409.09 221.149 409.674 224.74C416.332 267.984 416.332 311.991 409.674 355.235C409.09 358.826 407.249 362.094 404.481 364.455C401.712 366.817 398.196 368.119 394.557 368.13Z" fill="#C7EEEF"/>
<path d="M573.935 166.685H520.926C518.911 166.682 516.979 165.881 515.554 164.456C514.129 163.031 513.327 161.099 513.325 159.084V156.114C513.327 154.099 514.129 152.167 515.554 150.742C516.979 149.317 518.911 148.515 520.926 148.513H573.935C575.95 148.515 577.882 149.317 579.307 150.742C580.732 152.167 581.534 154.099 581.536 156.114V159.084C581.533 161.099 580.732 163.031 579.307 164.456C577.882 165.881 575.95 166.682 573.935 166.685Z" fill="#DEE9F1"/>
<path d="M573.935 204.215H520.926C518.911 204.212 516.979 203.411 515.554 201.986C514.129 200.561 513.327 198.629 513.325 196.614V193.644C513.327 191.629 514.129 189.697 515.554 188.272C516.979 186.847 518.911 186.046 520.926 186.043H573.935C575.95 186.046 577.882 186.847 579.307 188.272C580.732 189.697 581.534 191.629 581.536 193.644V196.614C581.534 198.629 580.732 200.561 579.307 201.986C577.882 203.411 575.95 204.212 573.935 204.215Z" fill="#DEE9F1"/>
<path d="M344.331 318.601C360.423 318.601 373.468 305.556 373.468 289.465C373.468 273.373 360.423 260.328 344.331 260.328C328.24 260.328 315.195 273.373 315.195 289.465C315.195 305.556 328.24 318.601 344.331 318.601Z" fill="white"/>
<path d="M358.266 285.664H348.132V275.53C348.132 274.522 347.731 273.555 347.019 272.843C346.306 272.13 345.339 271.73 344.331 271.73C343.324 271.73 342.357 272.13 341.644 272.843C340.931 273.555 340.531 274.522 340.531 275.53V285.664H330.397C329.389 285.664 328.422 286.065 327.709 286.778C326.997 287.49 326.596 288.457 326.596 289.465C326.596 290.473 326.997 291.439 327.709 292.152C328.422 292.865 329.389 293.265 330.397 293.265H340.531V303.4C340.531 304.408 340.931 305.374 341.644 306.087C342.357 306.8 343.324 307.2 344.331 307.2C345.339 307.2 346.306 306.8 347.019 306.087C347.731 305.374 348.132 304.408 348.132 303.4V293.265H358.266C359.274 293.265 360.241 292.865 360.954 292.152C361.666 291.439 362.067 290.473 362.067 289.465C362.067 288.457 361.666 287.49 360.954 286.778C360.241 286.065 359.274 285.664 358.266 285.664Z" fill="#DEE9F1"/>
<path d="M381.069 21.5357H327.863C326.352 21.534 324.903 20.9328 323.834 19.8641C322.765 18.7954 322.164 17.3464 322.162 15.8351V5.70062C322.164 4.18924 322.765 2.74026 323.834 1.67155C324.903 0.602849 326.352 0.00170329 327.863 0H381.069C382.58 0.00170329 384.029 0.602849 385.098 1.67155C386.167 2.74026 386.768 4.18924 386.769 5.70062V15.8351C386.768 17.3464 386.167 18.7954 385.098 19.8641C384.029 20.9328 382.58 21.534 381.069 21.5357Z" fill="#AEC8DB"/>
<path d="M573.623 119.08H520.417C518.906 119.078 517.457 118.477 516.388 117.408C515.319 116.339 514.718 114.89 514.717 113.379V103.245C514.718 101.733 515.319 100.284 516.388 99.2155C517.457 98.1468 518.906 97.5457 520.417 97.544H573.623C575.134 97.5457 576.583 98.1468 577.652 99.2155C578.721 100.284 579.322 101.733 579.324 103.245V113.379C579.322 114.89 578.721 116.339 577.652 117.408C576.583 118.477 575.134 119.078 573.623 119.08Z" fill="#AEC8DB"/>
<path d="M112.234 596.742H127.765L132.62 536.838H112.231L112.234 596.742Z" fill="#FFB8B8"/>
<path d="M108.273 591.672L138.858 591.67H138.859C141.419 591.67 143.954 592.174 146.319 593.154C148.683 594.134 150.832 595.569 152.642 597.379C154.452 599.189 155.888 601.338 156.867 603.703C157.847 606.068 158.351 608.602 158.351 611.162V611.795L108.274 611.797L108.273 591.672Z" fill="#2F2E41"/>
<path d="M28.6246 596.742H44.1556L51.5449 536.838H28.6221L28.6246 596.742Z" fill="#FFB8B8"/>
<path d="M24.6636 591.672L55.249 591.67H55.2503C57.81 591.67 60.3446 592.174 62.7095 593.154C65.0743 594.134 67.2231 595.569 69.033 597.379C70.843 599.189 72.2788 601.338 73.2583 603.703C74.2378 606.068 74.742 608.602 74.742 611.162V611.795L24.6645 611.797L24.6636 591.672Z" fill="#2F2E41"/>
<path d="M31.3801 577.818C29.7958 577.818 28.2696 577.222 27.1046 576.148C26.4792 575.578 25.9756 574.887 25.6238 574.117C25.2721 573.347 25.0796 572.513 25.0578 571.667L18.8293 348.439L107.266 370.548L134.553 452.406C138.072 462.936 139.595 474.031 139.044 485.12L135.656 564.468C135.579 566.094 134.878 567.627 133.7 568.75C132.522 569.873 130.957 570.498 129.329 570.497H114.496C112.965 570.491 111.488 569.933 110.335 568.925C109.182 567.918 108.431 566.529 108.219 565.012L97.6176 477.423C96.6912 470.59 94.3009 464.038 90.6099 458.213L69.7463 425.18C69.6068 424.959 69.4025 424.787 69.1615 424.687C68.9204 424.587 68.6543 424.564 68.3995 424.621C68.1447 424.677 67.9138 424.812 67.7381 425.005C67.5625 425.198 67.4508 425.441 67.4184 425.7L51.0455 571.494C50.8697 572.973 50.1778 574.342 49.0917 575.361C48.0056 576.38 46.5949 576.983 45.108 577.064L31.7406 577.807C31.6204 577.814 31.5004 577.818 31.3801 577.818Z" fill="#2F2E41"/>
<path d="M92.5496 203.914C109.733 203.914 123.664 189.984 123.664 172.8C123.664 155.616 109.733 141.686 92.5496 141.686C75.3658 141.686 61.4355 155.616 61.4355 172.8C61.4355 189.984 75.3658 203.914 92.5496 203.914Z" fill="#FFB8B8"/>
<path d="M106.843 379.626C106.307 379.625 105.774 379.558 105.256 379.425L17.5104 356.927C15.9416 356.525 14.5863 355.537 13.7233 354.167C12.8602 352.797 12.5549 351.148 12.8702 349.559L33.0214 241.006C34.2769 234.731 37.0365 228.855 41.0634 223.881C45.0902 218.908 50.2639 214.986 56.1403 212.453C61.8661 209.918 68.1277 208.833 74.3724 209.291C80.6172 209.75 86.653 211.738 91.9473 215.082C93.1758 215.848 94.4132 216.684 95.6244 217.566C100.5 221.162 104.476 225.84 107.241 231.231C110.006 236.623 111.484 242.581 111.559 248.639L113.162 373.203C113.172 374.04 113.017 374.872 112.705 375.649C112.392 376.427 111.929 377.134 111.341 377.732C110.754 378.329 110.054 378.804 109.282 379.129C108.51 379.454 107.681 379.623 106.843 379.626Z" fill="#F6AE2D"/>
<path d="M26.5386 380.903C25.4919 379.363 24.7957 377.611 24.4989 375.773C24.2022 373.934 24.3122 372.053 24.8212 370.262C25.3301 368.47 26.2257 366.812 27.4447 365.404C28.6638 363.997 30.1767 362.873 31.877 362.113L27.9742 317.013L48.656 328.222L49.1914 369.332C50.2787 372.273 50.2494 375.51 49.1092 378.431C47.9689 381.352 45.7968 383.753 43.0046 385.179C40.2124 386.605 36.9939 386.958 33.9591 386.17C30.9244 385.382 28.284 383.508 26.5386 380.903Z" fill="#FFB8B8"/>
<path d="M33.9275 356.148C33.344 356.148 32.7628 356.074 32.1974 355.929C30.9815 355.619 29.8719 354.986 28.9862 354.097C28.1005 353.208 27.4715 352.097 27.1658 350.879L17.002 310.489C13.45 296.382 15.1432 281.465 21.7667 268.514L43.0602 226.859C44.4063 221.872 47.6586 217.613 52.1157 215.002C56.5729 212.391 61.8778 211.636 66.8864 212.9C69.3828 213.531 71.7292 214.651 73.7896 216.195C75.85 217.739 77.5834 219.676 78.8892 221.896C80.2219 224.146 81.0935 226.64 81.4532 229.231C81.813 231.822 81.6537 234.458 80.9846 236.987L50.6731 304.769L51.0331 345.351C51.0424 346.783 50.612 348.183 49.7999 349.362C48.9878 350.541 47.8332 351.443 46.4923 351.945L36.3486 355.712C35.574 356 34.7541 356.148 33.9275 356.148Z" fill="#F6AE2D"/>
<path d="M179.022 364.314C177.172 364.102 175.39 363.488 173.803 362.513C172.216 361.539 170.862 360.228 169.836 358.674C168.81 357.119 168.138 355.359 167.866 353.517C167.594 351.674 167.73 349.795 168.263 348.01L131.534 321.548L153.521 313.185L185.029 339.596C187.967 340.69 190.402 342.825 191.872 345.594C193.342 348.364 193.745 351.576 193.004 354.623C192.264 357.67 190.431 360.339 187.854 362.125C185.277 363.911 182.135 364.69 179.022 364.314Z" fill="#FFB8B8"/>
<path d="M159.795 344.99C158.712 344.989 157.644 344.737 156.675 344.253L119.432 325.609C106.424 319.098 96.2224 308.084 90.7253 294.616L73.0442 251.304C70.1426 247.03 69.0368 241.787 69.9652 236.705C70.8936 231.623 73.7818 227.11 78.0072 224.138C80.1183 222.653 82.5038 221.604 85.0246 221.051C87.5454 220.498 90.1511 220.452 92.6899 220.916C95.2584 221.378 97.7098 222.345 99.9019 223.761C102.094 225.177 103.983 227.014 105.46 229.165L137.061 296.356L168.054 322.557C169.146 323.484 169.926 324.723 170.29 326.108C170.654 327.493 170.584 328.956 170.09 330.299L166.327 340.444C165.836 341.775 164.949 342.923 163.785 343.733C162.615 344.551 161.222 344.99 159.795 344.99Z" fill="#F6AE2D"/>
<path d="M86.0162 204.39C87.6694 205.114 91.0547 191.941 89.5382 189.306C87.283 185.388 87.4164 185.416 85.9192 182.824C84.4221 180.232 84.0871 176.684 86.0259 174.403C87.9646 172.122 92.4511 172.424 93.3358 175.284C92.7667 169.852 98.1394 165.486 103.461 164.259C108.783 163.032 114.397 163.794 119.748 162.702C125.959 161.435 132.42 156.229 129.943 149.4C129.517 148.263 128.881 147.216 128.066 146.316C125.203 143.097 121.199 141.723 117.283 140.394C109.138 137.629 100.769 134.83 92.1725 135.135C85.0893 135.505 78.2677 137.932 72.5425 142.119C66.8172 146.306 62.4367 152.071 59.937 158.709C59.3445 160.37 58.8856 162.075 58.5645 163.808C55.6138 179.674 64.8271 195.324 79.7913 201.366L86.0162 204.39Z" fill="#2F2E41"/>
<path opacity="0.2" d="M49.2786 346.272L49.9842 304.558L72.081 260.129L54.3458 305.734L49.2786 346.272Z" fill="black"/>
<path d="M249.658 450.96L156.373 412.202C154.328 411.359 152.502 410.062 151.035 408.407C149.567 406.753 148.496 404.786 147.903 402.655C147.293 400.5 147.184 398.234 147.582 396.03C147.98 393.826 148.876 391.742 150.202 389.937C173.761 357.497 189.354 319.968 195.718 280.384C196.063 278.171 196.908 276.066 198.189 274.228C199.469 272.391 201.152 270.87 203.109 269.781C205.038 268.698 207.187 268.069 209.395 267.942C211.603 267.815 213.811 268.193 215.851 269.048L309.136 307.807C312.353 309.154 314.987 311.6 316.57 314.708C318.152 317.816 318.58 321.385 317.776 324.779C307.349 367.204 290.488 407.784 267.782 445.108C265.943 448.072 263.113 450.287 259.794 451.359C256.475 452.43 252.883 452.289 249.658 450.96Z" fill="#DEE9F1"/>
<path d="M212.934 276.067C211.955 275.657 210.895 275.475 209.835 275.535C208.774 275.596 207.742 275.898 206.815 276.417C205.863 276.949 205.045 277.69 204.423 278.585C203.8 279.48 203.39 280.506 203.224 281.583C196.669 322.35 180.611 361.001 156.347 394.41C155.701 395.288 155.263 396.301 155.068 397.374C154.873 398.446 154.925 399.549 155.22 400.598C155.505 401.621 156.02 402.567 156.725 403.361C157.43 404.155 158.307 404.778 159.289 405.183L252.575 443.941C254.121 444.584 255.846 444.658 257.441 444.148C259.037 443.639 260.4 442.579 261.287 441.159C283.591 404.497 300.153 364.636 310.396 322.963C310.776 321.332 310.565 319.619 309.8 318.128C309.036 316.638 307.767 315.468 306.22 314.826L212.934 276.067Z" fill="white"/>
<path d="M262.605 362.346L213.652 342.007C211.792 341.232 210.316 339.751 209.547 337.888C208.778 336.025 208.779 333.934 209.55 332.072L210.689 329.329C211.465 327.469 212.946 325.993 214.809 325.223C216.671 324.454 218.763 324.455 220.624 325.227L269.577 345.565C271.437 346.341 272.913 347.822 273.683 349.685C274.452 351.547 274.451 353.639 273.679 355.501L272.54 358.243C271.765 360.103 270.283 361.58 268.421 362.349C266.558 363.118 264.467 363.117 262.605 362.346Z" fill="#F6AE2D"/>
<path d="M248.205 397.004L199.253 376.665C197.393 375.89 195.916 374.408 195.147 372.546C194.378 370.683 194.379 368.591 195.15 366.73L196.29 363.987C197.065 362.127 198.546 360.65 200.409 359.881C202.272 359.112 204.363 359.113 206.225 359.884L255.177 380.223C257.037 380.998 258.514 382.48 259.283 384.342C260.052 386.205 260.051 388.296 259.28 390.158L258.14 392.901C257.365 394.761 255.884 396.238 254.021 397.007C252.159 397.776 250.067 397.775 248.205 397.004Z" fill="#F6AE2D"/>
<path d="M282.22 313.638C281.487 313.637 280.762 313.495 280.083 313.219L230.756 293.276C229.356 292.708 228.238 291.608 227.647 290.217C227.057 288.825 227.043 287.257 227.608 285.855L231.406 276.459C231.973 275.057 233.074 273.939 234.465 273.348C235.857 272.758 237.427 272.745 238.828 273.311L288.155 293.254C289.556 293.822 290.674 294.923 291.264 296.314C291.854 297.705 291.868 299.274 291.303 300.676L287.505 310.071C287.078 311.124 286.347 312.025 285.406 312.66C284.465 313.295 283.356 313.636 282.22 313.638Z" fill="#AEC8DB"/>
<path d="M178.619 612.5H1.2668C0.930827 612.5 0.608629 612.366 0.371057 612.129C0.133485 611.891 0 611.569 0 611.233C0 610.897 0.133485 610.575 0.371057 610.337C0.608629 610.1 0.930827 609.966 1.2668 609.966H178.619C178.955 609.966 179.278 610.1 179.515 610.337C179.753 610.575 179.886 610.897 179.886 611.233C179.886 611.569 179.753 611.891 179.515 612.129C179.278 612.366 178.955 612.5 178.619 612.5Z" fill="#AEC8DB"/>
</g>
<defs>
<clipPath id="clip0_16_9">
<rect width="615.456" height="612.5" fill="white"/>
</clipPath>
</defs>
</svg>
