<svg width="60" height="60" viewBox="0 0 60 60" fill="none" xmlns="http://www.w3.org/2000/svg">
<circle cx="30" cy="30" r="30" fill="#55E0A6"/>
<path d="M16.75 42.1872V42.1875C16.75 42.9997 17.0727 43.7787 17.647 44.353C18.2213 44.9273 19.0003 45.25 19.8125 45.25H32.9375C33.2524 45.25 33.5545 45.1249 33.7772 44.9022C33.9999 44.6795 34.125 44.3774 34.125 44.0625C34.125 43.7476 33.9999 43.4455 33.7772 43.2228C33.5545 43.0001 33.2524 42.875 32.9375 42.875H19.8125C19.6302 42.875 19.4553 42.8026 19.3264 42.6736C19.1974 42.5447 19.125 42.3698 19.125 42.1875C19.125 40.5133 19.7901 38.9077 20.9739 37.7239C22.1577 36.5401 23.7633 35.875 25.4375 35.875H32.9375C33.2524 35.875 33.5545 35.7499 33.7772 35.5272C33.9999 35.3045 34.125 35.0024 34.125 34.6875C34.125 34.3726 33.9999 34.0705 33.7772 33.8478C33.5545 33.6251 33.2524 33.5 32.9375 33.5H25.4375H25.4372C23.134 33.5026 20.9259 34.4186 19.2973 36.0473C17.6686 37.6759 16.7526 39.884 16.75 42.1872ZM31.9831 30.25C33.5159 30.25 35.0143 29.7955 36.2888 28.9439C37.5633 28.0923 38.5566 26.8819 39.1432 25.4658C39.7298 24.0497 39.8832 22.4914 39.5842 20.9881C39.2852 19.4847 38.5471 18.1038 37.4632 17.0199C36.3793 15.9361 34.9984 15.198 33.4951 14.8989C31.9917 14.5999 30.4335 14.7534 29.0173 15.3399C27.6012 15.9265 26.3908 16.9199 25.5392 18.1943C24.6877 19.4688 24.2331 20.9672 24.2331 22.5C24.2331 24.5554 25.0496 26.5267 26.503 27.9801C27.9565 29.4335 29.9277 30.25 31.9831 30.25ZM31.9831 17.125C33.0462 17.125 34.0854 17.4402 34.9693 18.0309C35.8532 18.6215 36.5422 19.4609 36.949 20.4431C37.3558 21.4252 37.4622 22.506 37.2548 23.5486C37.0475 24.5913 36.5355 25.549 35.7838 26.3007C35.0321 27.0524 34.0744 27.5643 33.0317 27.7717C31.9891 27.9791 30.9084 27.8727 29.9262 27.4659C28.944 27.059 28.1046 26.3701 27.514 25.4862C26.9234 24.6023 26.6081 23.5631 26.6081 22.5C26.6081 21.0745 27.1744 19.7073 28.1824 18.6993C29.1904 17.6913 30.5576 17.125 31.9831 17.125ZM46.9022 39.2772C47.1249 39.0545 47.25 38.7524 47.25 38.4375C47.25 38.1226 47.1249 37.8205 46.9022 37.5978C46.6795 37.3751 46.3774 37.25 46.0625 37.25H41.625V32.8125C41.625 32.4976 41.4999 32.1955 41.2772 31.9728C41.0545 31.7501 40.7524 31.625 40.4375 31.625C40.1226 31.625 39.8205 31.7501 39.5978 31.9728C39.3751 32.1955 39.25 32.4976 39.25 32.8125V37.25H34.8125C34.4976 37.25 34.1955 37.3751 33.9728 37.5978C33.7501 37.8205 33.625 38.1226 33.625 38.4375C33.625 38.7524 33.7501 39.0545 33.9728 39.2772C34.1955 39.4999 34.4976 39.625 34.8125 39.625H39.25V44.0625C39.25 44.3774 39.3751 44.6795 39.5978 44.9022C39.8205 45.1249 40.1226 45.25 40.4375 45.25C40.7524 45.25 41.0545 45.1249 41.2772 44.9022C41.4999 44.6795 41.625 44.3774 41.625 44.0625V39.625H46.0625C46.3774 39.625 46.6795 39.4999 46.9022 39.2772Z" fill="#007242" stroke="#007242" stroke-width="0.5"/>
</svg>
