<svg width="60" height="60" viewBox="0 0 60 60" fill="none" xmlns="http://www.w3.org/2000/svg">
<circle cx="30" cy="30" r="30" fill="#F6AE2D"/>
<path d="M42.8571 26.7857H33.2143V17.1429C33.2143 15.9596 32.2547 15 31.0714 15H28.9286C27.7453 15 26.7857 15.9596 26.7857 17.1429V26.7857H17.1429C15.9596 26.7857 15 27.7453 15 28.9286V31.0714C15 32.2547 15.9596 33.2143 17.1429 33.2143H26.7857V42.8571C26.7857 44.0404 27.7453 45 28.9286 45H31.0714C32.2547 45 33.2143 44.0404 33.2143 42.8571V33.2143H42.8571C44.0404 33.2143 45 32.2547 45 31.0714V28.9286C45 27.7453 44.0404 26.7857 42.8571 26.7857Z" fill="white"/>
</svg>
