<svg width="205" height="261" viewBox="0 0 205 261" fill="none" xmlns="http://www.w3.org/2000/svg">
<path d="M137.347 240.204C139.903 240.364 141.315 237.189 139.382 235.338L139.189 234.573C139.215 234.512 139.24 234.451 139.266 234.39C141.85 228.227 150.61 228.269 153.172 234.441C155.447 239.919 158.343 245.407 159.056 251.199C159.375 253.756 159.232 256.361 158.664 258.87C163.994 247.228 166.798 234.515 166.798 221.731C166.798 218.519 166.623 215.307 166.263 212.103C165.967 209.482 165.56 206.877 165.033 204.296C162.18 190.345 156.004 177.057 147.094 165.959C142.812 163.618 139.24 159.958 137.083 155.571C136.308 153.989 135.7 152.287 135.413 150.554C135.9 150.617 137.25 143.194 136.883 142.739C137.562 141.708 138.778 141.196 139.52 140.19C143.209 135.188 148.292 136.061 150.946 142.859C156.614 145.72 156.669 150.465 153.191 155.028C150.978 157.931 150.674 161.86 148.732 164.968C148.932 165.224 149.14 165.471 149.34 165.727C153.003 170.425 156.171 175.475 158.842 180.781C158.087 174.885 159.201 167.781 161.101 163.202C163.264 157.985 167.318 153.591 170.887 149.081C175.175 143.663 183.968 146.027 184.723 152.895C184.73 152.962 184.738 153.028 184.745 153.094C184.214 153.394 183.695 153.711 183.188 154.047C180.293 155.961 181.294 160.448 184.723 160.977L184.8 160.989C184.609 162.898 184.281 164.792 183.802 166.654C188.381 184.364 178.494 190.814 164.377 191.104C164.066 191.264 163.762 191.424 163.45 191.576C164.881 195.603 166.023 199.734 166.87 203.921C167.629 207.62 168.157 211.359 168.452 215.115C168.82 219.853 168.788 224.615 168.388 229.346L168.412 229.178C169.427 223.968 172.256 219.102 176.363 215.73C182.481 210.704 191.125 208.854 197.725 204.814C200.903 202.869 204.974 205.382 204.42 209.066C204.411 209.125 204.402 209.183 204.393 209.242C203.41 209.642 202.451 210.105 201.524 210.624C200.994 210.924 200.474 211.241 199.967 211.577C197.073 213.491 198.073 217.978 201.502 218.507L201.58 218.519C201.636 218.527 201.684 218.535 201.74 218.543C200.054 222.546 197.705 226.261 194.764 229.465C191.901 244.926 179.602 246.393 166.447 241.89H166.439C165.001 248.155 162.899 254.275 160.198 260.108H137.906C137.826 259.86 137.754 259.605 137.682 259.357C139.743 259.485 141.821 259.365 143.85 258.99C142.196 256.96 140.542 254.914 138.888 252.885C138.848 252.845 138.816 252.805 138.784 252.765C137.946 251.726 137.099 250.696 136.26 249.657L136.259 249.656C136.207 246.467 136.59 243.288 137.347 240.204Z" fill="#55DDE0"/>
<path d="M120.012 184.521C115.443 184.807 112.917 179.13 116.374 175.821L116.718 174.454C116.673 174.344 116.628 174.235 116.582 174.125C111.961 163.107 96.2993 163.183 91.7175 174.218C87.6508 184.012 82.4733 193.823 81.1984 204.179C80.6269 208.751 80.8841 213.408 81.8984 217.894C72.3697 197.079 67.3552 174.35 67.3552 151.493C67.3552 145.749 67.6696 140.006 68.3124 134.278C68.841 129.592 69.5696 124.935 70.5125 120.32C75.6125 95.377 86.6557 71.6194 102.585 51.7761C110.242 47.5903 116.628 41.0472 120.485 33.2043C121.871 30.3756 122.956 27.3327 123.471 24.2327C122.599 24.347 120.185 11.0752 120.842 10.261C119.628 8.41812 117.454 7.50204 116.128 5.70378C109.531 -3.2396 100.443 -1.67806 95.6986 10.4753C85.5634 15.5906 85.4653 24.0739 91.6843 32.2329C95.6408 37.4237 96.1844 44.4474 99.6559 50.0046C99.2987 50.4618 98.9272 50.9047 98.5701 51.3619C92.0207 59.7622 86.3562 68.7912 81.5809 78.2769C82.9305 67.7348 80.9379 55.0344 77.5411 46.8476C73.6744 37.5195 66.4268 29.6634 60.0444 21.5993C52.3782 11.9131 36.6578 16.1403 35.3071 28.4191C35.2941 28.538 35.2813 28.6568 35.2688 28.7757C36.2168 29.3105 37.1456 29.8787 38.0528 30.4786C43.2274 33.9008 41.439 41.9224 35.3077 42.8688L35.1689 42.8902C35.5118 46.3045 36.0975 49.6904 36.9546 53.0191C28.7668 84.6834 46.4436 96.2162 71.6838 96.7343C72.241 97.0199 72.784 97.3056 73.3411 97.5771C70.7839 104.777 68.7409 112.163 67.2267 119.649C65.8695 126.263 64.9266 132.949 64.3981 139.664C63.7408 148.135 63.798 156.65 64.5124 165.107L64.4695 164.807C62.6553 155.493 57.5979 146.792 50.2549 140.764C39.3159 131.778 23.8613 128.469 12.0601 121.246C6.3794 117.769 -0.900059 122.262 0.0913815 128.848C0.107205 128.953 0.123265 129.058 0.139643 129.164C1.8968 129.878 3.61106 130.706 5.26825 131.635C6.21624 132.17 7.14498 132.738 8.05217 133.338C13.2267 136.76 11.4384 144.782 5.3071 145.728L5.16818 145.749C5.06822 145.764 4.98244 145.778 4.8826 145.792C7.89693 152.95 12.0969 159.593 17.3542 165.321C22.4738 192.963 44.4626 195.586 67.9838 187.536H67.9981C70.5696 198.736 74.3269 209.679 79.1556 220.108H119.013C119.156 219.665 119.285 219.208 119.414 218.765C115.728 218.994 112.013 218.78 108.385 218.108C111.342 214.48 114.299 210.822 117.256 207.194C117.328 207.122 117.385 207.051 117.442 206.979C118.942 205.122 120.456 203.279 121.956 201.422L121.957 201.42C122.051 195.719 121.366 190.036 120.012 184.521Z" fill="#55DDE0"/>
</svg>
