<svg width="32" height="26" viewBox="0 0 32 26" fill="none" xmlns="http://www.w3.org/2000/svg">
<path d="M1.41176 25.5357H12.7059C13.0803 25.5357 13.4394 25.387 13.7041 25.1222C13.9689 24.8574 14.1176 24.4983 14.1176 24.1239C14.1176 23.7495 13.9689 23.3904 13.7041 23.1257C13.4394 22.8609 13.0803 22.7122 12.7059 22.7122H2.92376C3.26633 20.3613 4.44301 18.2121 6.23893 16.657C8.03485 15.1019 10.3302 14.2445 12.7059 14.2416C14.3682 14.256 15.9832 13.6884 17.2709 12.6371C18.5586 11.5858 19.438 10.1171 19.7566 8.48553C20.0751 6.85396 19.8128 5.16235 19.0151 3.70388C18.2174 2.2454 16.9346 1.11197 15.3889 0.500025C13.8433 -0.111919 12.1322 -0.16381 10.5523 0.353345C8.97245 0.8705 7.62328 1.92411 6.73866 3.33157C5.85403 4.73903 5.4897 6.41163 5.70881 8.05951C5.92792 9.70738 6.71666 11.2267 7.93834 12.3541C5.59511 13.3046 3.58837 14.9321 2.17441 17.0285C0.760438 19.1249 0.00341132 21.5952 0 24.1239C0 24.4983 0.148739 24.8574 0.413496 25.1222C0.678252 25.387 1.03734 25.5357 1.41176 25.5357ZM12.7059 2.94749C13.5435 2.94749 14.3624 3.19589 15.0589 3.66127C15.7553 4.12665 16.2982 4.78811 16.6188 5.56201C16.9393 6.3359 17.0232 7.18748 16.8598 8.00904C16.6963 8.83061 16.293 9.58526 15.7007 10.1776C15.1083 10.7699 14.3537 11.1733 13.5321 11.3367C12.7106 11.5001 11.859 11.4162 11.0851 11.0957C10.3112 10.7751 9.64973 10.2323 9.18435 9.53578C8.71897 8.83929 8.47057 8.02044 8.47057 7.18278C8.47057 6.05951 8.91679 4.98225 9.71106 4.18798C10.5053 3.39371 11.5826 2.94749 12.7059 2.94749ZM31.0588 18.4769C31.0588 18.8513 30.91 19.2104 30.6453 19.4751C30.3805 19.7399 30.0214 19.8886 29.647 19.8886H19.7647C19.3902 19.8886 19.0312 19.7399 18.7664 19.4751C18.5016 19.2104 18.3529 18.8513 18.3529 18.4769C18.3529 18.1025 18.5016 17.7434 18.7664 17.4786C19.0312 17.2139 19.3902 17.0651 19.7647 17.0651H29.647C30.0214 17.0651 30.3805 17.2139 30.6453 17.4786C30.91 17.7434 31.0588 18.1025 31.0588 18.4769Z" fill="#2F4858"/>
</svg>
