<svg width="717" height="684" viewBox="0 0 717 684" fill="none" xmlns="http://www.w3.org/2000/svg">
<g clip-path="url(#clip0_1_13)">
<path d="M450.81 682C450.81 682.66 451.34 683.19 452 683.19H715.59C716.25 683.19 716.78 682.66 716.78 682C716.78 681.34 716.25 680.81 715.59 680.81H452C451.34 680.81 450.81 681.34 450.81 682Z" fill="#3F3D58"/>
<path d="M546.64 348.65L543.59 356.28C543.59 356.28 540.78 366.96 544.07 371.22C547.36 375.48 548.09 408.09 544.56 410.5C541.02 412.91 589.38 388.17 589.38 388.17C589.38 388.17 570.5 344.39 570.18 344.23C569.86 344.07 557.49 340.21 557.49 340.21L546.65 348.64L546.64 348.65Z" fill="#2F2E43"/>
<path d="M578.12 386.36L561.92 391.69V368.37H576.62L578.12 386.36Z" fill="#F6A6A9"/>
<path d="M528.6 518.76C527.72 524.1 524.16 527.93 520.64 527.32C517.12 526.7 514.98 521.87 515.86 516.53C516.18 514.39 517.03 512.37 518.33 510.63L522.35 488.04L533.28 490.33L528.16 512.35C528.83 514.43 528.99 516.63 528.6 518.76Z" fill="#F6A6A9"/>
<path d="M572.04 647.44H556.86V668.97H572.04V647.44Z" fill="#F6A6A9"/>
<path d="M542.08 682C540.48 682 539.06 681.96 537.99 681.86C533.96 681.49 530.11 678.52 528.18 676.78C527.31 676 527.03 674.75 527.49 673.68C527.81 672.91 528.46 672.33 529.27 672.1L539.92 669.06L557.17 657.42L557.36 657.76C557.43 657.89 559.13 660.94 559.69 663C559.91 663.78 559.85 664.44 559.52 664.94C559.29 665.29 558.98 665.49 558.72 665.61C559.03 665.94 560.01 666.6 563.02 667.08C567.42 667.78 568.34 663.22 568.38 663.03L568.41 662.88L568.54 662.8C570.63 661.45 571.92 660.84 572.37 660.97C572.65 661.05 573.11 661.19 574.36 673.61C574.49 674 575.36 676.86 574.77 679.59C574.12 682.56 561.14 681.54 558.54 681.3C558.47 681.3 548.74 682 542.08 682Z" fill="#2F2E43"/>
<path d="M615.242 630.514L602.362 638.547L613.755 656.815L626.636 648.782L615.242 630.514Z" fill="#F6A6A9"/>
<path d="M598.14 679.05C596.36 679.05 594.72 678.84 593.56 678.63C592.41 678.43 591.52 677.52 591.33 676.37C591.2 675.54 591.44 674.71 592 674.09L599.43 665.87L607.91 646.87L608.26 647.06C608.39 647.13 611.44 648.82 613.01 650.27C613.61 650.82 613.91 651.41 613.89 652.01C613.89 652.43 613.72 652.77 613.57 653C614.01 653.11 615.19 653.16 618 651.97C622.1 650.24 620.48 645.88 620.4 645.69L620.34 645.55L620.41 645.41C621.47 643.16 622.24 641.95 622.69 641.83C622.97 641.75 623.44 641.63 631.07 651.5C631.38 651.76 633.64 653.72 634.58 656.36C635.6 659.23 624.04 665.23 621.72 666.4C621.65 666.46 609.55 675.25 604.59 677.75C602.62 678.74 600.29 679.05 598.16 679.05H598.14Z" fill="#2F2E43"/>
<path d="M583.21 467.41H540.73L536.87 506.93L553.74 652.95H575.43L566.76 568.61L601.94 644.75L621.22 631.26L593.75 560.18C593.75 560.18 603.56 498.25 595.85 482.83C588.14 467.41 583.22 467.41 583.22 467.41H583.21Z" fill="#2F2E43"/>
<path d="M604.34 469.82H530.6L557.11 382.59H586.51L604.34 469.82Z" fill="#55DDE0"/>
<path d="M561.75 382.6C561.75 382.6 543.44 382.12 541.51 386.94C539.58 391.76 516.93 506.46 516.93 506.46H531.87L561.75 382.6Z" fill="#55DDE0"/>
<path d="M563.93 374.82C572.844 374.82 580.07 367.594 580.07 358.68C580.07 349.766 572.844 342.54 563.93 342.54C555.016 342.54 547.79 349.766 547.79 358.68C547.79 367.594 555.016 374.82 563.93 374.82Z" fill="#F6A6A9"/>
<path d="M567.06 333.6C567.06 333.6 586.5 328.62 592.44 354.48C592.44 354.48 592.6 361.23 595.97 363.96C599.34 366.69 598.22 380.83 598.22 380.83C598.22 380.83 604.65 391.43 599.18 396.25C599.18 396.25 596.77 406.05 600.3 411.67C603.83 417.29 617.17 448.22 595 450.1C595 450.1 583.76 443.31 589.06 423.07C594.36 402.83 588.42 391.65 588.42 391.65C588.42 391.65 571.39 385.48 572.36 372.3C573.32 359.13 561.44 346.12 560.63 346.28C559.82 346.44 551.47 341.62 547.78 356.4L543.82 355.73C543.82 355.73 542.16 330.86 567.06 333.59V333.6Z" fill="#2F2E43"/>
<path d="M616.92 516.16C618 521.47 616.03 526.31 612.52 526.99C609.01 527.66 605.3 523.91 604.22 518.6C603.76 516.49 603.83 514.29 604.43 512.21L600.16 489.67L611.19 487.93L614.22 510.34C615.59 512.05 616.51 514.05 616.91 516.18L616.92 516.16Z" fill="#F6A6A9"/>
<path d="M573.66 382.7C573.66 382.7 589.79 380.66 591.72 385.48C593.65 390.3 616.3 505 616.3 505H601.36L573.67 382.71L573.66 382.7Z" fill="#55DDE0"/>
<path d="M96.98 211.83H18.38C8.25 211.83 0 203.59 0 193.45V114.85C0 104.72 8.24 96.47 18.38 96.47H96.98C107.11 96.47 115.36 104.71 115.36 114.85V193.45C115.36 203.58 107.12 211.83 96.98 211.83ZM18.38 98.48C9.35 98.48 2 105.83 2 114.86V193.46C2 202.49 9.35 209.84 18.38 209.84H96.98C106.01 209.84 113.36 202.49 113.36 193.46V114.86C113.36 105.83 106.01 98.48 96.98 98.48H18.38Z" fill="#69A1CB" fill-opacity="0.5"/>
<path d="M267.66 211.83H189.06C178.93 211.83 170.68 203.59 170.68 193.45V114.85C170.68 104.72 178.92 96.47 189.06 96.47H267.66C277.79 96.47 286.04 104.71 286.04 114.85V193.45C286.04 203.58 277.8 211.83 267.66 211.83ZM189.06 98.47C180.03 98.47 172.68 105.82 172.68 114.85V193.45C172.68 202.48 180.03 209.83 189.06 209.83H267.66C276.69 209.83 284.04 202.48 284.04 193.45V114.85C284.04 105.82 276.69 98.47 267.66 98.47H189.06Z" fill="#69A1CB" fill-opacity="0.5"/>
<path d="M267.66 425.9H189.06C178.93 425.9 170.68 417.66 170.68 407.52V328.92C170.68 318.79 178.92 310.54 189.06 310.54H267.66C277.79 310.54 286.04 318.78 286.04 328.92V407.52C286.04 417.65 277.8 425.9 267.66 425.9ZM189.06 312.54C180.03 312.54 172.68 319.89 172.68 328.92V407.52C172.68 416.55 180.03 423.9 189.06 423.9H267.66C276.69 423.9 284.04 416.55 284.04 407.52V328.92C284.04 319.89 276.69 312.54 267.66 312.54H189.06Z" fill="#69A1CB" fill-opacity="0.5"/>
<path d="M96.98 425.9H18.38C8.25 425.9 0 417.66 0 407.52V328.92C0 318.79 8.24 310.54 18.38 310.54H96.98C107.11 310.54 115.36 318.78 115.36 328.92V407.52C115.36 417.65 107.12 425.9 96.98 425.9ZM18.38 312.54C9.35 312.54 2 319.89 2 328.92V407.52C2 416.55 9.35 423.9 18.38 423.9H96.98C106.01 423.9 113.36 416.55 113.36 407.52V328.92C113.36 319.89 106.01 312.54 96.98 312.54H18.38Z" fill="#69A1CB" fill-opacity="0.5"/>
<path d="M111.03 338.97C123.904 338.97 134.34 328.534 134.34 315.66C134.34 302.786 123.904 292.35 111.03 292.35C98.1562 292.35 87.72 302.786 87.72 315.66C87.72 328.534 98.1562 338.97 111.03 338.97Z" fill="#F6AE2D"/>
<path d="M438.34 211.83H359.74C349.61 211.83 341.36 203.59 341.36 193.45V114.85C341.36 104.72 349.6 96.47 359.74 96.47H438.34C448.47 96.47 456.72 104.71 456.72 114.85V193.45C456.72 203.58 448.48 211.83 438.34 211.83ZM359.74 98.47C350.71 98.47 343.36 105.82 343.36 114.85V193.45C343.36 202.48 350.71 209.83 359.74 209.83H438.34C447.37 209.83 454.72 202.48 454.72 193.45V114.85C454.72 105.82 447.37 98.47 438.34 98.47H359.74Z" fill="#69A1CB" fill-opacity="0.5"/>
<path d="M455.72 124.91C468.594 124.91 479.03 114.474 479.03 101.6C479.03 88.7262 468.594 78.29 455.72 78.29C442.846 78.29 432.41 88.7262 432.41 101.6C432.41 114.474 442.846 124.91 455.72 124.91Z" fill="#F6AE2D"/>
<path d="M78.21 235.83H31.32C27.65 235.83 24.67 232.85 24.67 229.18C24.67 225.51 27.65 222.53 31.32 222.53H78.21C81.88 222.53 84.86 225.51 84.86 229.18C84.86 232.85 81.88 235.83 78.21 235.83Z" fill="#55DDE0"/>
<path d="M251.8 235.83H204.91C201.24 235.83 198.26 232.85 198.26 229.18C198.26 225.51 201.24 222.53 204.91 222.53H251.8C255.47 222.53 258.45 225.51 258.45 229.18C258.45 232.85 255.47 235.83 251.8 235.83Z" fill="#55DDE0"/>
<path d="M425.4 235.83H378.51C374.84 235.83 371.86 232.85 371.86 229.18C371.86 225.51 374.84 222.53 378.51 222.53H425.4C429.07 222.53 432.05 225.51 432.05 229.18C432.05 232.85 429.07 235.83 425.4 235.83Z" fill="#55DDE0"/>
<path d="M438.34 427.9H359.74C349.61 427.9 341.36 419.66 341.36 409.52V330.92C341.36 320.79 349.6 312.54 359.74 312.54H438.34C448.47 312.54 456.72 320.78 456.72 330.92V409.52C456.72 419.65 448.48 427.9 438.34 427.9ZM359.74 314.54C350.71 314.54 343.36 321.89 343.36 330.92V409.52C343.36 418.55 350.71 425.9 359.74 425.9H438.34C447.37 425.9 454.72 418.55 454.72 409.52V330.92C454.72 321.89 447.37 314.54 438.34 314.54H359.74Z" fill="#69A1CB" fill-opacity="0.5"/>
<path d="M425.4 451.89H378.51C374.84 451.89 371.86 448.91 371.86 445.24C371.86 441.57 374.84 438.59 378.51 438.59H425.4C429.07 438.59 432.05 441.57 432.05 445.24C432.05 448.91 429.07 451.89 425.4 451.89Z" fill="#55DDE0"/>
<path d="M609.03 211.83H530.43C520.3 211.83 512.05 203.59 512.05 193.45V114.85C512.05 104.72 520.29 96.47 530.43 96.47H609.03C619.16 96.47 627.41 104.71 627.41 114.85V193.45C627.41 203.58 619.17 211.83 609.03 211.83ZM530.43 98.47C521.4 98.47 514.05 105.82 514.05 114.85V193.45C514.05 202.48 521.4 209.83 530.43 209.83H609.03C618.06 209.83 625.41 202.48 625.41 193.45V114.85C625.41 105.82 618.06 98.47 609.03 98.47H530.43Z" fill="#69A1CB" fill-opacity="0.5"/>
<path d="M596.08 235.83H549.19C545.52 235.83 542.54 232.85 542.54 229.18C542.54 225.51 545.52 222.53 549.19 222.53H596.08C599.75 222.53 602.73 225.51 602.73 229.18C602.73 232.85 599.75 235.83 596.08 235.83Z" fill="#55DDE0"/>
<path d="M78.21 449.89H31.32C27.65 449.89 24.67 446.91 24.67 443.24C24.67 439.57 27.65 436.59 31.32 436.59H78.21C81.88 436.59 84.86 439.57 84.86 443.24C84.86 446.91 81.88 449.89 78.21 449.89Z" fill="#55DDE0"/>
<path d="M251.8 449.89H204.91C201.24 449.89 198.26 446.91 198.26 443.24C198.26 439.57 201.24 436.59 204.91 436.59H251.8C255.47 436.59 258.45 439.57 258.45 443.24C258.45 446.91 255.47 449.89 251.8 449.89Z" fill="#55DDE0"/>
<path d="M297.74 519.64C300.899 519.64 303.46 517.079 303.46 513.92C303.46 510.761 300.899 508.2 297.74 508.2C294.581 508.2 292.02 510.761 292.02 513.92C292.02 517.079 294.581 519.64 297.74 519.64Z" fill="#F6AE2D"/>
<path d="M314.7 519.64C317.859 519.64 320.42 517.079 320.42 513.92C320.42 510.761 317.859 508.2 314.7 508.2C311.541 508.2 308.98 510.761 308.98 513.92C308.98 517.079 311.541 519.64 314.7 519.64Z" fill="#55DDE0"/>
<path d="M331.66 519.64C334.819 519.64 337.38 517.079 337.38 513.92C337.38 510.761 334.819 508.2 331.66 508.2C328.501 508.2 325.94 510.761 325.94 513.92C325.94 517.079 328.501 519.64 331.66 519.64Z" fill="#55DDE0"/>
<path d="M393.26 28.19H236.12C228.35 28.19 222.03 21.87 222.03 14.1C222.03 6.32999 228.35 0.00999451 236.12 0.00999451H393.26C401.03 0.00999451 407.35 6.32999 407.35 14.1C407.35 21.87 401.03 28.19 393.26 28.19ZM236.13 1.99999C229.46 1.99999 224.04 7.42999 224.04 14.09C224.04 20.75 229.47 26.18 236.13 26.18H393.27C399.94 26.18 405.36 20.75 405.36 14.09C405.36 7.42999 399.93 1.99999 393.27 1.99999H236.13Z" fill="#69A1CB" fill-opacity="0.5"/>
<path d="M281.11 17.78C277.95 17.78 275.38 15.21 275.38 12.05C275.38 8.89001 277.95 6.32001 281.11 6.32001C284.27 6.32001 286.84 8.89001 286.84 12.05C286.84 15.21 284.27 17.78 281.11 17.78ZM281.11 7.88001C278.81 7.88001 276.94 9.75001 276.94 12.05C276.94 14.35 278.81 16.22 281.11 16.22C283.41 16.22 285.28 14.35 285.28 12.05C285.28 9.75001 283.41 7.88001 281.11 7.88001Z" fill="#484662"/>
<path d="M291.91 22.47C291.73 22.47 291.55 22.41 291.4 22.28L284.16 16.07C283.83 15.79 283.8 15.3 284.08 14.97C284.36 14.64 284.85 14.61 285.18 14.89L292.42 21.1C292.75 21.38 292.78 21.87 292.5 22.2C292.35 22.38 292.13 22.47 291.91 22.47Z" fill="#484662"/>
</g>
<defs>
<clipPath id="clip0_1_13">
<rect width="716.79" height="683.19" fill="white"/>
</clipPath>
</defs>
</svg>
