<svg width="60" height="60" viewBox="0 0 60 60" fill="none" xmlns="http://www.w3.org/2000/svg">
<circle cx="30" cy="30" r="30" fill="#69A1CB"/>
<path d="M50.0207 23.8707L31.6469 15.413C31.0509 15.1385 30.4161 15 29.7602 15C29.1043 15 28.4697 15.1385 27.8736 15.413L9.49979 23.8707C9.19609 24.0111 9 24.317 9 24.6514C9 24.9858 9.19609 25.2917 9.49979 25.4321L27.8736 33.8898C28.4695 34.1643 29.1043 34.3034 29.7602 34.3034C30.4161 34.3034 31.0509 34.1643 31.6471 33.8898L46.1478 27.2152V33.9364C45.5723 34.0013 45.1235 34.4911 45.1235 35.0829C45.1235 35.5986 45.4648 36.045 45.9512 36.1873L44.9706 42.6579H49.4856L48.5052 36.1873C48.9914 36.045 49.3327 35.5986 49.3327 35.0829C49.3327 34.4911 48.8839 34.0013 48.3084 33.9364V26.2204L50.0208 25.4321C50.3245 25.2917 50.5206 24.9858 50.5206 24.6514C50.5206 24.317 50.3244 24.0111 50.0207 23.8707Z" fill="white"/>
<path d="M29.7602 37.3659C28.8482 37.3659 27.9646 37.172 27.1339 36.7898L18.1469 32.6526V40.8949C18.1469 42.7045 23.6148 45 29.7602 45C35.9058 45 41.3737 42.7044 41.3737 40.8949V32.6526L32.3862 36.7898C31.5561 37.172 30.6726 37.3659 29.7602 37.3659Z" fill="white"/>
</svg>
